<svg fill="#000000" height="24" viewBox="0 0 24 24" width="24" xmlns="http://www.w3.org/2000/svg">
  <path d="M0 0h24v24H0z" fill="none"/>
  <path class="cls-2" d="m8.2896 20.25c7.5472 0 11.675-6.3486 11.675-11.854 0-0.18032 0-0.35983-0.01196-0.53853a8.3488 8.4767 0 0 0 2.0472 -2.1565 8.1904 8.3159 0 0 1 -2.3568 0.65549 4.1176 4.1807 0 0 0 1.804 -2.3044 8.2232 8.3492 0 0 1 -2.6056 1.0113 4.1072 4.1701 0 0 0 -6.9928 3.7997 11.65 11.828 0 0 1 -8.4568 -4.3529 4.1064 4.1693 0 0 0 1.2704 5.5615 4.0728 4.1352 0 0 1 -1.8624 -0.52147v0.052798a4.1048 4.1677 0 0 0 3.292 4.084 4.0968 4.1596 0 0 1 -1.8528 0.07148 4.108 4.1709 0 0 0 3.8336 2.8933 8.2336 8.3597 0 0 1 -5.096 1.787 8.3528 8.4808 0 0 1 -0.9768 -0.060125 11.617 11.795 0 0 0 6.2896 1.8682" style="stroke-width:.08061"/>
</svg>
